<?xml version="1.0" encoding="UTF-8"?>
<svg id="a" xmlns="http://www.w3.org/2000/svg" version="1.1" viewBox="0 0 64.1 62.7">
  <!-- Generator: Adobe Illustrator 29.8.2, SVG Export Plug-In . SVG Version: 2.1.1 Build 3)  -->
  <defs>
    <style>
      .st0 {
        fill: #0c0c0c;
      }

      .st1 {
        fill: #161616;
      }
    </style>
  </defs>
  <path class="st0" d="M10.1,60.2s0,0,0-.1c.9-.4,1.8-.9,2.7-1.3.5-.3,1.1-.5,1.6-.8.1,0,.3-.3.3-.5,0-2.7,0-2.4,0-5.2,0-.2-.2-.4-.3-.5-.5-.3-1.1-.5-1.6-.8-.9-.4-1.8-.9-2.7-1.3,0,0,0,0,0-.1h19.6s0,0,0,0c0-2.3,0-4.8,0-7.2,0-.2-.2-.4-.4-.5-1.4-.7-2.8-1.4-4.2-2.1-.3-.1-.3-1,0-1.1,1.4-.7,2.8-1.4,4.2-2.1.2,0,.3-.3.4-.5,0-2.3,0-4.7,0-7s0-.1,0-.2H10.2s0,0,0-.1c.9-.4,1.8-.9,2.7-1.3.5-.3,1.1-.5,1.6-.8.1,0,.3-.3.3-.5,0-2.7,0-2.4,0-5.2,0-.2-.2-.4-.3-.5-.5-.3-1.1-.5-1.6-.8-.9-.4-1.8-.9-2.7-1.3,0,0,0,0,0-.1h19.6s0,0,0,0c0-2.3,0-4.9,0-7.2,0-.2-.2-.4-.4-.5-1.4-.7-2.8-1.4-4.2-2.1-.3-.1-.3-1,0-1.1,1.4-.7,2.8-1.4,4.2-2.1.2,0,.3-.3.4-.5,0-2.3,0-4.7,0-7s0,0,0-.2h-14.8s-.1,0-.2,0c-2.6.7-5.6.1-7.5-.1-.6,0-1.5,0-2.6,0V2.3s0,0,0,.2h19.6s0,0,0,.1c-.9.4-1.8.9-2.7,1.3-.5.3-1.1.5-1.7.8-.2,0-.3.3-.3.5,0,2.7,0,2.4,0,5.2,0,.2.2.4.3.5.5.3,1.1.6,1.7.8.9.4,1.8.9,2.7,1.3,0,0,0,0,0,.1H4.7c0,.1,0,.1,0,.2,0,2.3,0,4.7,0,7,0,.2.2.4.4.5,1.4.7,2.8,1.4,4.2,2.1.3.1.3,1,0,1.1-1.4.7-2.8,1.4-4.2,2.1-.2,0-.4.3-.4.5,0,2.3,0,4.7,0,7s0,0,0,.2h19.6s0,0,0,.1c-.9.4-1.8.9-2.7,1.3-.5.3-1.1.5-1.7.8-.2,0-.3.3-.3.5,0,2.7,0,2.4,0,5.2,0,.2.2.4.3.5.5.3,1.1.5,1.7.8.9.4,1.8.9,2.7,1.3,0,0,0,0,0,.1H4.7c0,0,0,.2,0,.2,0,2.3,0,4.7,0,7,0,.2.2.4.4.5,1.4.7,2.8,1.4,4.2,2.1.3.1.3,1,0,1.1-1.4.7-2.8,1.4-4.2,2.1-.2,0-.4.3-.4.5,0,2.3,0,4.7,0,7s0,0,0,.2h17.9c.7-.2,1.5-.4,2.4-.4s2.2.2,3.1.7c.5,0,1.1,0,1.6,0,0-1.7,0-3.5,0-5.2,0,0,0,0,0-.2H10.1Z"/>
  <path class="st0" d="M54.8,60.2h-19.6c0,.1,0,.2,0,.2,0,1.7,0,3.4,0,5.2.5,0,1.1,0,1.6,0,.9-.4,1.9-.7,3.1-.7s1.7.1,2.4.4h5.4s12.5,0,12.5,0c0,0,0-.1,0-.2,0-2.3,0-4.7,0-7,0-.2-.2-.4-.4-.5-1.4-.7-2.8-1.4-4.2-2.1-.3-.1-.3-1,0-1.1,1.4-.7,2.8-1.4,4.2-2.1.2,0,.4-.3.4-.5,0-2.3,0-4.7,0-7s0-.1,0-.2h-12.6s-7.1,0-7.1,0c0,0,0,0,0-.1.9-.4,1.8-.9,2.7-1.3.6-.3,1.1-.5,1.7-.8.2,0,.3-.3.3-.5,0-2.7,0-2.4,0-5.2,0-.2-.2-.4-.3-.5-.5-.3-1.1-.6-1.7-.8-.9-.4-1.8-.9-2.7-1.3,0,0,0,0,0-.1h7.1s12.5,0,12.5,0c0-.1,0-.2,0-.2,0-2.3,0-4.7,0-7,0-.2-.2-.4-.4-.5-1.4-.7-2.8-1.4-4.2-2.1-.3-.1-.3-1,0-1.1,1.4-.7,2.8-1.4,4.2-2.1.2,0,.4-.3.4-.5,0-2.3,0-4.7,0-7s0,0,0-.2h-12.6s-7.1,0-7.1,0c0,0,0,0,0-.1.9-.4,1.8-.9,2.7-1.3.6-.3,1.1-.5,1.7-.8.2,0,.3-.3.3-.5,0-2.7,0-2.4,0-5.2,0-.2-.2-.4-.3-.5-.5-.3-1.1-.6-1.7-.8-.9-.4-1.8-.9-2.7-1.3,0,0,0,0,0-.1h7.1s12.5,0,12.5,0c0-.1,0-.2,0-.2V-2.6c-1,0-2,0-2.6,0-1.9.3-4.9.8-7.5.1,0,0-.1,0-.2,0h-14.8c0,.1,0,.2,0,.2,0,2.3,0,4.7,0,7,0,.2.2.4.4.5,1.4.7,2.8,1.4,4.2,2.1.3.1.3,1,0,1.1-1.4.7-2.8,1.4-4.2,2.1-.2,0-.4.3-.4.5,0,2.3,0,4.9,0,7.2s0,0,0,0h12.5s7.1,0,7.1,0c0,0,0,0,0,.1-.9.4-1.8.9-2.7,1.3-.5.3-1.1.5-1.6.8-.1,0-.3.3-.3.5,0,2.7,0,2.4,0,5.2,0,.2.2.4.3.5.5.3,1.1.6,1.6.8.9.4,1.8.9,2.7,1.3,0,0,0,.1,0,.1h-19.6c0,.1,0,.2,0,.2,0,2.3,0,4.7,0,7,0,.2.2.4.4.5,1.4.7,2.8,1.4,4.2,2.1.3.1.3,1,0,1.1-1.4.7-2.8,1.4-4.2,2.1-.2,0-.4.3-.4.5,0,2.3,0,4.9,0,7.2s0,0,0,0h12.5s7.1,0,7.1,0c0,0,0,0,0,.1-.9.4-1.8.9-2.7,1.3-.5.3-1.1.5-1.6.8-.1,0-.3.3-.3.5,0,2.7,0,2.4,0,5.2,0,.2.2.4.3.5.5.3,1.1.6,1.6.8.9.4,1.8.9,2.7,1.3,0,0,0,.1,0,.1h0Z"/>
  <g>
    <path class="st1" d="M54.8,37.4v-1.8h-4.4s0,0,0,0c0,.8,0,1.6,0,2.5,0,0,0,.1.1.2.5.3,1,.5,1.5.8,0,0,0,.4,0,.4-.5.2-1,.5-1.5.8,0,0-.1.1-.1.2,0,.8,0,1.6,0,2.5,0,0,0,0,0,0h4.4v-1.8h-2.5s0,0,0,0c.3-.2.6-.3.9-.5.2,0,.4-.2.6-.3,0,0,.1-.1.1-.2,0-1,0-.9,0-1.8,0,0,0-.1-.1-.2-.2-.1-.4-.2-.6-.3-.3-.2-.6-.3-.9-.5,0,0,0,0,0,0h2.5Z"/>
    <path class="st1" d="M55.6,37.4v-1.8h4.4s0,0,0,0c0,.8,0,1.6,0,2.5,0,0,0,.1-.1.2-.5.3-1,.5-1.5.8,0,0,0,.4,0,.4.5.2,1,.5,1.5.8,0,0,.1.1.1.2,0,.8,0,1.6,0,2.5,0,0,0,0,0,0h-4.4v-1.8h2.5s0,0,0,0c-.3-.2-.6-.3-.9-.5-.2,0-.4-.2-.6-.3,0,0-.1-.1-.1-.2,0-1,0-.9,0-1.8,0,0,0-.1.1-.2.2-.1.4-.2.6-.3.3-.2.6-.3.9-.5,0,0,0,0,0,0h-2.5Z"/>
  </g>
  <g>
    <path class="st1" d="M9.5,6.1v-1.8h-4.4s0,0,0,0c0,.8,0,1.6,0,2.5,0,0,0,.1.1.2.5.3,1,.5,1.5.8,0,0,0,.4,0,.4-.5.2-1,.5-1.5.8,0,0-.1.1-.1.2,0,.8,0,1.6,0,2.5,0,0,0,0,0,0h4.4v-1.8h-2.5s0,0,0,0c.3-.2.6-.3.9-.5.2,0,.4-.2.6-.3,0,0,.1-.1.1-.2,0-1,0-.9,0-1.8,0,0,0-.1-.1-.2-.2-.1-.4-.2-.6-.3-.3-.2-.6-.3-.9-.5,0,0,0,0,0,0h2.5Z"/>
    <path class="st1" d="M10.2,6.1v-1.8h4.4s0,0,0,0c0,.8,0,1.6,0,2.5,0,0,0,.1-.1.2-.5.3-1,.5-1.5.8,0,0,0,.4,0,.4.5.2,1,.5,1.5.8,0,0,.1.1.1.2,0,.8,0,1.6,0,2.5,0,0,0,0,0,0h-4.4v-1.8h2.5s0,0,0,0c-.3-.2-.6-.3-.9-.5-.2,0-.4-.2-.6-.3,0,0-.1-.1-.1-.2,0-1,0-.9,0-1.8,0,0,0-.1.1-.2.2-.1.4-.2.6-.3.3-.2.6-.3.9-.5,0,0,0,0,0,0h-2.5Z"/>
  </g>
</svg>